<svg xmlns="http://www.w3.org/2000/svg" xmlns:xlink="http://www.w3.org/1999/xlink" width="500" zoomAndPan="magnify" viewBox="0 0 375 374.999991" height="500" preserveAspectRatio="xMidYMid meet" version="1.0"><defs><clipPath id="530eb78ce6"><path d="M 37.5 37.652344 L 337.5 37.652344 L 337.5 336 L 37.5 336 Z M 37.5 37.652344 " clip-rule="nonzero"/></clipPath></defs><g clip-path="url(#530eb78ce6)"><path fill="#ffffff" d="M 337.5 187.652344 C 337.5 104.808594 270.34375 37.652344 187.5 37.652344 C 104.65625 37.652344 37.5 104.808594 37.5 187.652344 C 37.5 262.519531 92.351562 324.574219 164.0625 335.828125 L 164.0625 231.011719 L 125.976562 231.011719 L 125.976562 187.652344 L 164.0625 187.652344 L 164.0625 154.605469 C 164.0625 117.011719 186.457031 96.246094 220.71875 96.246094 C 237.132812 96.246094 254.296875 99.175781 254.296875 99.175781 L 254.296875 136.089844 L 235.382812 136.089844 C 216.75 136.089844 210.9375 147.652344 210.9375 159.511719 L 210.9375 187.652344 L 252.539062 187.652344 L 245.890625 231.011719 L 210.9375 231.011719 L 210.9375 335.828125 C 282.648438 324.574219 337.5 262.519531 337.5 187.652344 " fill-opacity="1" fill-rule="nonzero"/></g></svg>