<svg xmlns="http://www.w3.org/2000/svg" xmlns:xlink="http://www.w3.org/1999/xlink" width="500" zoomAndPan="magnify" viewBox="0 0 375 374.999991" height="500" preserveAspectRatio="xMidYMid meet" version="1.0"><defs><clipPath id="4b4884653e"><path d="M 37.5 37.652344 L 337.5 37.652344 L 337.5 336 L 37.5 336 Z M 37.5 37.652344 " clip-rule="nonzero"/></clipPath></defs><g clip-path="url(#4b4884653e)"><path fill="#004aad" d="M 337.195312 187.5 C 337.195312 104.742188 270.105469 37.652344 187.347656 37.652344 C 104.589844 37.652344 37.5 104.742188 37.5 187.5 C 37.5 262.292969 92.296875 324.285156 163.933594 335.527344 L 163.933594 230.8125 L 125.886719 230.8125 L 125.886719 187.5 L 163.933594 187.5 L 163.933594 154.484375 C 163.933594 116.929688 186.304688 96.183594 220.535156 96.183594 C 236.929688 96.183594 254.078125 99.113281 254.078125 99.113281 L 254.078125 135.988281 L 235.179688 135.988281 C 216.566406 135.988281 210.761719 147.539062 210.761719 159.390625 L 210.761719 187.5 L 252.320312 187.5 L 245.675781 230.8125 L 210.761719 230.8125 L 210.761719 335.527344 C 282.398438 324.285156 337.195312 262.292969 337.195312 187.5 " fill-opacity="1" fill-rule="nonzero"/></g></svg>