<svg xmlns="http://www.w3.org/2000/svg" xmlns:xlink="http://www.w3.org/1999/xlink" width="500" zoomAndPan="magnify" viewBox="0 0 375 374.999991" height="500" preserveAspectRatio="xMidYMid meet" version="1.0"><defs><clipPath id="48f915a66e"><path d="M 37.5 37.5 L 337.5 37.5 L 337.5 337.5 L 37.5 337.5 Z M 37.5 37.5 " clip-rule="nonzero"/></clipPath></defs><g clip-path="url(#48f915a66e)"><path fill="#004aad" d="M 125.285156 38.550781 C 109.34375 39.300781 98.453125 41.84375 88.9375 45.585938 C 79.085938 49.425781 70.734375 54.578125 62.429688 62.914062 C 54.121094 71.25 49.003906 79.605469 45.191406 89.472656 C 41.503906 99.011719 39.003906 109.910156 38.300781 125.863281 C 37.597656 141.816406 37.441406 146.941406 37.519531 187.636719 C 37.597656 228.328125 37.777344 233.429688 38.550781 249.414062 C 39.308594 265.355469 41.84375 276.242188 45.585938 285.761719 C 49.429688 295.613281 54.578125 303.960938 62.917969 312.269531 C 71.257812 320.582031 79.605469 325.683594 89.496094 329.503906 C 99.027344 333.183594 109.925781 335.695312 125.878906 336.394531 C 141.828125 337.09375 146.960938 337.253906 187.640625 337.175781 C 228.320312 337.097656 233.445312 336.917969 249.425781 336.160156 C 265.410156 335.402344 276.238281 332.851562 285.761719 329.128906 C 295.613281 325.273438 303.964844 320.136719 312.269531 311.792969 C 320.574219 303.449219 325.6875 295.089844 329.496094 285.214844 C 333.1875 275.6875 335.695312 264.785156 336.390625 248.847656 C 337.085938 232.851562 337.253906 227.746094 337.175781 187.058594 C 337.097656 146.375 336.914062 141.273438 336.15625 125.292969 C 335.398438 109.3125 332.859375 98.460938 329.121094 88.933594 C 325.269531 79.082031 320.128906 70.742188 311.792969 62.425781 C 303.457031 54.109375 295.089844 49 285.21875 45.199219 C 275.683594 41.511719 264.789062 38.996094 248.839844 38.304688 C 232.890625 37.617188 227.753906 37.441406 187.058594 37.519531 C 146.363281 37.597656 141.269531 37.769531 125.285156 38.550781 M 127.035156 309.4375 C 112.425781 308.800781 104.492188 306.375 99.207031 304.34375 C 92.207031 301.644531 87.21875 298.382812 81.949219 293.167969 C 76.683594 287.949219 73.445312 282.945312 70.710938 275.957031 C 68.660156 270.671875 66.1875 262.746094 65.503906 248.136719 C 64.761719 232.347656 64.605469 227.605469 64.515625 187.597656 C 64.429688 147.59375 64.582031 142.859375 65.277344 127.0625 C 65.898438 112.460938 68.339844 104.519531 70.371094 99.238281 C 73.066406 92.226562 76.316406 87.25 81.546875 81.984375 C 86.777344 76.71875 91.765625 73.476562 98.757812 70.742188 C 104.039062 68.679688 111.960938 66.230469 126.566406 65.535156 C 142.371094 64.785156 147.105469 64.632812 187.105469 64.546875 C 227.105469 64.460938 231.851562 64.609375 247.660156 65.304688 C 262.257812 65.941406 270.203125 68.359375 275.480469 70.402344 C 282.484375 73.097656 287.46875 76.335938 292.734375 81.578125 C 298 86.816406 301.246094 91.785156 303.980469 98.792969 C 306.046875 104.058594 308.496094 111.980469 309.1875 126.59375 C 309.9375 142.394531 310.109375 147.132812 310.179688 187.132812 C 310.253906 227.128906 310.113281 231.878906 309.417969 247.671875 C 308.78125 262.28125 306.359375 270.214844 304.324219 275.507812 C 301.628906 282.507812 298.375 287.496094 293.144531 292.757812 C 287.910156 298.023438 282.925781 301.265625 275.929688 303.996094 C 270.65625 306.058594 262.722656 308.515625 248.132812 309.210938 C 232.328125 309.953125 227.59375 310.109375 187.578125 310.195312 C 147.5625 310.28125 142.84375 310.121094 127.039062 309.4375 M 249.195312 107.261719 C 249.195312 107.847656 249.226562 108.4375 249.285156 109.023438 C 249.34375 109.609375 249.429688 110.191406 249.546875 110.769531 C 249.664062 111.34375 249.808594 111.914062 249.980469 112.480469 C 250.152344 113.042969 250.351562 113.597656 250.578125 114.140625 C 250.800781 114.683594 251.054688 115.214844 251.332031 115.734375 C 251.613281 116.253906 251.914062 116.757812 252.242188 117.246094 C 252.570312 117.734375 252.921875 118.207031 253.296875 118.660156 C 253.671875 119.117188 254.066406 119.550781 254.484375 119.96875 C 254.902344 120.382812 255.339844 120.777344 255.792969 121.148438 C 256.25 121.523438 256.722656 121.871094 257.214844 122.199219 C 257.703125 122.523438 258.207031 122.828125 258.730469 123.101562 C 259.25 123.378906 259.78125 123.628906 260.324219 123.855469 C 260.871094 124.078125 261.425781 124.277344 261.988281 124.445312 C 262.550781 124.617188 263.121094 124.757812 263.699219 124.871094 C 264.277344 124.984375 264.859375 125.070312 265.445312 125.128906 C 266.03125 125.183594 266.621094 125.210938 267.210938 125.210938 C 267.796875 125.210938 268.386719 125.179688 268.972656 125.121094 C 269.558594 125.0625 270.140625 124.976562 270.71875 124.859375 C 271.292969 124.742188 271.863281 124.601562 272.429688 124.429688 C 272.992188 124.257812 273.546875 124.058594 274.089844 123.832031 C 274.632812 123.605469 275.164062 123.351562 275.683594 123.074219 C 276.203125 122.792969 276.707031 122.492188 277.195312 122.164062 C 277.683594 121.835938 278.15625 121.484375 278.609375 121.109375 C 279.066406 120.734375 279.5 120.339844 279.914062 119.921875 C 280.332031 119.503906 280.726562 119.066406 281.097656 118.613281 C 281.472656 118.15625 281.820312 117.683594 282.148438 117.191406 C 282.472656 116.703125 282.773438 116.195312 283.050781 115.675781 C 283.328125 115.15625 283.578125 114.625 283.804688 114.082031 C 284.027344 113.535156 284.226562 112.980469 284.394531 112.417969 C 284.566406 111.855469 284.707031 111.28125 284.820312 110.703125 C 284.933594 110.128906 285.019531 109.546875 285.074219 108.957031 C 285.132812 108.371094 285.160156 107.785156 285.160156 107.195312 C 285.15625 106.605469 285.128906 106.019531 285.070312 105.433594 C 285.011719 104.847656 284.921875 104.265625 284.808594 103.6875 C 284.691406 103.109375 284.546875 102.539062 284.375 101.976562 C 284.203125 101.414062 284.003906 100.859375 283.777344 100.316406 C 283.550781 99.773438 283.296875 99.242188 283.019531 98.722656 C 282.742188 98.203125 282.4375 97.699219 282.109375 97.210938 C 281.78125 96.722656 281.429688 96.25 281.054688 95.796875 C 280.679688 95.339844 280.285156 94.90625 279.867188 94.492188 C 279.449219 94.074219 279.015625 93.679688 278.558594 93.308594 C 278.101562 92.933594 277.628906 92.585938 277.136719 92.257812 C 276.648438 91.933594 276.144531 91.632812 275.621094 91.355469 C 275.101562 91.078125 274.570312 90.828125 274.027344 90.605469 C 273.480469 90.378906 272.925781 90.183594 272.363281 90.011719 C 271.800781 89.84375 271.226562 89.699219 270.652344 89.585938 C 270.074219 89.472656 269.492188 89.386719 268.90625 89.332031 C 268.316406 89.273438 267.730469 89.246094 267.140625 89.25 C 266.554688 89.25 265.964844 89.28125 265.378906 89.339844 C 264.792969 89.398438 264.210938 89.484375 263.636719 89.601562 C 263.058594 89.714844 262.488281 89.859375 261.925781 90.03125 C 261.359375 90.203125 260.808594 90.402344 260.265625 90.628906 C 259.722656 90.855469 259.191406 91.109375 258.671875 91.386719 C 258.152344 91.667969 257.648438 91.96875 257.160156 92.296875 C 256.671875 92.625 256.199219 92.976562 255.746094 93.351562 C 255.289062 93.726562 254.855469 94.121094 254.4375 94.539062 C 254.023438 94.957031 253.628906 95.390625 253.257812 95.847656 C 252.882812 96.304688 252.535156 96.777344 252.207031 97.265625 C 251.882812 97.757812 251.582031 98.261719 251.304688 98.78125 C 251.027344 99.300781 250.777344 99.832031 250.550781 100.378906 C 250.328125 100.921875 250.132812 101.476562 249.960938 102.039062 C 249.792969 102.605469 249.648438 103.175781 249.535156 103.753906 C 249.421875 104.328125 249.335938 104.910156 249.28125 105.496094 C 249.222656 106.082031 249.195312 106.671875 249.195312 107.261719 M 110.40625 187.496094 C 110.492188 229.996094 145.003906 264.367188 187.492188 264.285156 C 229.980469 264.203125 264.375 229.695312 264.292969 187.199219 C 264.214844 144.699219 229.691406 110.320312 187.199219 110.402344 C 144.703125 110.488281 110.324219 145.007812 110.40625 187.496094 M 137.398438 187.445312 C 137.394531 185.808594 137.472656 184.175781 137.628906 182.546875 C 137.785156 180.917969 138.023438 179.300781 138.339844 177.695312 C 138.652344 176.089844 139.046875 174.507812 139.519531 172.941406 C 139.992188 171.375 140.539062 169.832031 141.160156 168.320312 C 141.785156 166.808594 142.480469 165.328125 143.25 163.886719 C 144.015625 162.441406 144.855469 161.039062 145.761719 159.675781 C 146.667969 158.3125 147.636719 157 148.671875 155.734375 C 149.707031 154.464844 150.804688 153.253906 151.957031 152.09375 C 153.113281 150.933594 154.320312 149.835938 155.582031 148.796875 C 156.84375 147.753906 158.15625 146.777344 159.515625 145.867188 C 160.871094 144.957031 162.273438 144.113281 163.714844 143.339844 C 165.15625 142.566406 166.632812 141.863281 168.140625 141.234375 C 169.652344 140.605469 171.1875 140.050781 172.753906 139.574219 C 174.316406 139.097656 175.902344 138.695312 177.503906 138.375 C 179.109375 138.050781 180.726562 137.808594 182.351562 137.644531 C 183.980469 137.480469 185.613281 137.398438 187.25 137.394531 C 188.882812 137.390625 190.515625 137.46875 192.144531 137.625 C 193.773438 137.78125 195.390625 138.019531 196.996094 138.335938 C 198.601562 138.652344 200.1875 139.046875 201.753906 139.515625 C 203.320312 139.988281 204.859375 140.535156 206.371094 141.160156 C 207.882812 141.78125 209.363281 142.476562 210.808594 143.246094 C 212.25 144.015625 213.652344 144.851562 215.015625 145.757812 C 216.378906 146.664062 217.691406 147.632812 218.960938 148.671875 C 220.226562 149.707031 221.4375 150.800781 222.597656 151.953125 C 223.757812 153.109375 224.855469 154.316406 225.898438 155.582031 C 226.9375 156.84375 227.914062 158.152344 228.824219 159.511719 C 229.734375 160.871094 230.578125 162.269531 231.351562 163.710938 C 232.128906 165.152344 232.828125 166.628906 233.457031 168.136719 C 234.085938 169.648438 234.640625 171.1875 235.117188 172.75 C 235.597656 174.316406 235.996094 175.898438 236.320312 177.503906 C 236.640625 179.105469 236.882812 180.722656 237.046875 182.351562 C 237.210938 183.976562 237.292969 185.609375 237.296875 187.246094 C 237.300781 188.882812 237.222656 190.515625 237.066406 192.140625 C 236.910156 193.769531 236.671875 195.386719 236.355469 196.992188 C 236.042969 198.597656 235.648438 200.183594 235.175781 201.75 C 234.703125 203.316406 234.15625 204.855469 233.535156 206.367188 C 232.910156 207.882812 232.214844 209.359375 231.445312 210.804688 C 230.679688 212.25 229.839844 213.652344 228.933594 215.011719 C 228.027344 216.375 227.058594 217.691406 226.023438 218.957031 C 224.988281 220.222656 223.890625 221.4375 222.738281 222.59375 C 221.582031 223.753906 220.375 224.855469 219.113281 225.894531 C 217.847656 226.933594 216.539062 227.910156 215.179688 228.820312 C 213.820312 229.734375 212.421875 230.574219 210.980469 231.351562 C 209.539062 232.125 208.0625 232.824219 206.554688 233.453125 C 205.042969 234.082031 203.507812 234.636719 201.941406 235.117188 C 200.378906 235.59375 198.792969 235.992188 197.1875 236.316406 C 195.585938 236.636719 193.96875 236.882812 192.34375 237.042969 C 190.714844 237.207031 189.082031 237.292969 187.445312 237.292969 C 185.8125 237.296875 184.179688 237.222656 182.550781 237.066406 C 180.921875 236.90625 179.304688 236.671875 177.699219 236.355469 C 176.09375 236.039062 174.507812 235.644531 172.941406 235.175781 C 171.375 234.703125 169.835938 234.15625 168.324219 233.53125 C 166.808594 232.910156 165.332031 232.214844 163.886719 231.445312 C 162.441406 230.675781 161.039062 229.839844 159.675781 228.933594 C 158.316406 228.027344 157 227.054688 155.734375 226.019531 C 154.46875 224.984375 153.253906 223.890625 152.09375 222.738281 C 150.9375 221.582031 149.835938 220.375 148.796875 219.109375 C 147.757812 217.847656 146.78125 216.539062 145.867188 215.179688 C 144.957031 213.820312 144.113281 212.421875 143.339844 210.980469 C 142.566406 209.539062 141.863281 208.0625 141.234375 206.550781 C 140.605469 205.042969 140.054688 203.503906 139.574219 201.941406 C 139.097656 200.375 138.699219 198.789062 138.375 197.1875 C 138.054688 195.582031 137.808594 193.96875 137.648438 192.339844 C 137.484375 190.710938 137.402344 189.078125 137.398438 187.445312 " fill-opacity="1" fill-rule="nonzero"/></g></svg>